<mxfile host="Electron" modified="2024-07-28T19:36:41.722Z" agent="Mozilla/5.0 (Windows NT 10.0; Win64; x64) AppleWebKit/537.36 (KHTML, like Gecko) draw.io/24.5.3 Chrome/124.0.6367.207 Electron/30.0.6 Safari/537.36" etag="kG2-D3jVemFX8OLBRuVn" version="24.5.3" type="device">
  <diagram id="C5RBs43oDa-KdzZeNtuy" name="Page-1">
    <mxGraphModel dx="1434" dy="836" grid="1" gridSize="10" guides="1" tooltips="1" connect="1" arrows="1" fold="1" page="1" pageScale="1" pageWidth="827" pageHeight="1169" math="0" shadow="0">
      <root>
        <mxCell id="WIyWlLk6GJQsqaUBKTNV-0" />
        <mxCell id="WIyWlLk6GJQsqaUBKTNV-1" parent="WIyWlLk6GJQsqaUBKTNV-0" />
        <mxCell id="IWbHio8IvnpA1DpgQnnE-22" value="&lt;p style=&quot;margin:0px;margin-top:4px;text-align:center;&quot;&gt;&lt;i&gt;&amp;lt;&amp;lt;Interface&amp;gt;&amp;gt;&lt;/i&gt;&lt;br&gt;&lt;b&gt;ISubscriber&lt;/b&gt;&lt;/p&gt;&lt;hr size=&quot;1&quot; style=&quot;border-style:solid;&quot;&gt;&lt;p style=&quot;margin: 0px 0px 0px 4px; line-height: 150%;&quot;&gt;+ update(context: string): void&lt;br&gt;&lt;/p&gt;" style="verticalAlign=top;align=left;overflow=fill;html=1;whiteSpace=wrap;" parent="WIyWlLk6GJQsqaUBKTNV-1" vertex="1">
          <mxGeometry x="115" y="270" width="240" height="70" as="geometry" />
        </mxCell>
        <mxCell id="IWbHio8IvnpA1DpgQnnE-32" value="Device" style="swimlane;fontStyle=1;align=center;verticalAlign=top;childLayout=stackLayout;horizontal=1;startSize=26;horizontalStack=0;resizeParent=1;resizeParentMax=0;resizeLast=0;collapsible=1;marginBottom=0;whiteSpace=wrap;html=1;" parent="WIyWlLk6GJQsqaUBKTNV-1" vertex="1">
          <mxGeometry x="450" y="410" width="300" height="110" as="geometry" />
        </mxCell>
        <mxCell id="IWbHio8IvnpA1DpgQnnE-33" value="- name: string {readonly}" style="text;strokeColor=none;fillColor=none;align=left;verticalAlign=top;spacingLeft=4;spacingRight=4;overflow=hidden;rotatable=0;points=[[0,0.5],[1,0.5]];portConstraint=eastwest;whiteSpace=wrap;html=1;" parent="IWbHio8IvnpA1DpgQnnE-32" vertex="1">
          <mxGeometry y="26" width="300" height="26" as="geometry" />
        </mxCell>
        <mxCell id="IWbHio8IvnpA1DpgQnnE-34" value="" style="line;strokeWidth=1;fillColor=none;align=left;verticalAlign=middle;spacingTop=-1;spacingLeft=3;spacingRight=3;rotatable=0;labelPosition=right;points=[];portConstraint=eastwest;strokeColor=inherit;" parent="IWbHio8IvnpA1DpgQnnE-32" vertex="1">
          <mxGeometry y="52" width="300" height="8" as="geometry" />
        </mxCell>
        <mxCell id="IWbHio8IvnpA1DpgQnnE-35" value="&lt;div style=&quot;line-height: 180%;&quot;&gt;&lt;span style=&quot;background-color: initial;&quot;&gt;+ getName(): string&lt;/span&gt;&lt;br&gt;&lt;/div&gt;+ updateDevice(message: string, owner: string): void" style="text;strokeColor=none;fillColor=none;align=left;verticalAlign=top;spacingLeft=4;spacingRight=4;overflow=hidden;rotatable=0;points=[[0,0.5],[1,0.5]];portConstraint=eastwest;whiteSpace=wrap;html=1;" parent="IWbHio8IvnpA1DpgQnnE-32" vertex="1">
          <mxGeometry y="60" width="300" height="50" as="geometry" />
        </mxCell>
        <mxCell id="IWbHio8IvnpA1DpgQnnE-37" value="User" style="swimlane;fontStyle=1;align=center;verticalAlign=top;childLayout=stackLayout;horizontal=1;startSize=26;horizontalStack=0;resizeParent=1;resizeParentMax=0;resizeLast=0;collapsible=1;marginBottom=0;whiteSpace=wrap;html=1;" parent="WIyWlLk6GJQsqaUBKTNV-1" vertex="1">
          <mxGeometry x="111" y="390" width="246" height="150" as="geometry" />
        </mxCell>
        <mxCell id="IWbHio8IvnpA1DpgQnnE-38" value="- userName: string {readonly}&lt;div style=&quot;line-height: 170%;&quot;&gt;+&amp;nbsp;devices:&amp;nbsp;List&amp;lt;Device&amp;gt;&lt;/div&gt;" style="text;strokeColor=none;fillColor=none;align=left;verticalAlign=top;spacingLeft=4;spacingRight=4;overflow=hidden;rotatable=0;points=[[0,0.5],[1,0.5]];portConstraint=eastwest;whiteSpace=wrap;html=1;" parent="IWbHio8IvnpA1DpgQnnE-37" vertex="1">
          <mxGeometry y="26" width="246" height="44" as="geometry" />
        </mxCell>
        <mxCell id="IWbHio8IvnpA1DpgQnnE-39" value="" style="line;strokeWidth=1;fillColor=none;align=left;verticalAlign=middle;spacingTop=-1;spacingLeft=3;spacingRight=3;rotatable=0;labelPosition=right;points=[];portConstraint=eastwest;strokeColor=inherit;" parent="IWbHio8IvnpA1DpgQnnE-37" vertex="1">
          <mxGeometry y="70" width="246" height="8" as="geometry" />
        </mxCell>
        <mxCell id="IWbHio8IvnpA1DpgQnnE-40" value="&lt;p style=&quot;margin: 0px 0px 0px 4px; line-height: 180%;&quot;&gt;&lt;span style=&quot;background-color: initial;&quot;&gt;+ addDevice(device: Device): void&lt;/span&gt;&lt;br&gt;&lt;/p&gt;&lt;p style=&quot;margin: 0px 0px 0px 4px; line-height: 180%;&quot;&gt;+ removeDevice(device: Device): void&lt;br&gt;&lt;/p&gt;&lt;p style=&quot;margin: 0px 0px 0px 4px; line-height: 180%;&quot;&gt;+ update(context: string): void&lt;/p&gt;&lt;div style=&quot;line-height: 180%;&quot;&gt;&lt;/div&gt;" style="text;strokeColor=none;fillColor=none;align=left;verticalAlign=top;spacingLeft=4;spacingRight=4;overflow=hidden;rotatable=0;points=[[0,0.5],[1,0.5]];portConstraint=eastwest;whiteSpace=wrap;html=1;" parent="IWbHio8IvnpA1DpgQnnE-37" vertex="1">
          <mxGeometry y="78" width="246" height="72" as="geometry" />
        </mxCell>
        <mxCell id="XOd5gceirpR1Ofy1swVb-2" value="" style="endArrow=block;dashed=1;endFill=0;endSize=12;html=1;rounded=0;exitX=0.5;exitY=0;exitDx=0;exitDy=0;entryX=0.5;entryY=1;entryDx=0;entryDy=0;" parent="WIyWlLk6GJQsqaUBKTNV-1" source="IWbHio8IvnpA1DpgQnnE-37" target="IWbHio8IvnpA1DpgQnnE-22" edge="1">
          <mxGeometry width="160" relative="1" as="geometry">
            <mxPoint x="300" y="200" as="sourcePoint" />
            <mxPoint x="210" y="370" as="targetPoint" />
          </mxGeometry>
        </mxCell>
        <mxCell id="1LyA_sJIvCgKy_9Qs8XV-0" value="Publisher" style="swimlane;fontStyle=1;align=center;verticalAlign=top;childLayout=stackLayout;horizontal=1;startSize=26;horizontalStack=0;resizeParent=1;resizeParentMax=0;resizeLast=0;collapsible=1;marginBottom=0;whiteSpace=wrap;html=1;" vertex="1" parent="WIyWlLk6GJQsqaUBKTNV-1">
          <mxGeometry x="100" y="70" width="270" height="140" as="geometry" />
        </mxCell>
        <mxCell id="1LyA_sJIvCgKy_9Qs8XV-1" value="&lt;div style=&quot;line-height: 170%;&quot;&gt;- subscribers:&amp;nbsp;List&amp;lt;ISubscriber&amp;gt;&lt;/div&gt;" style="text;strokeColor=none;fillColor=none;align=left;verticalAlign=top;spacingLeft=4;spacingRight=4;overflow=hidden;rotatable=0;points=[[0,0.5],[1,0.5]];portConstraint=eastwest;whiteSpace=wrap;html=1;" vertex="1" parent="1LyA_sJIvCgKy_9Qs8XV-0">
          <mxGeometry y="26" width="270" height="24" as="geometry" />
        </mxCell>
        <mxCell id="1LyA_sJIvCgKy_9Qs8XV-2" value="" style="line;strokeWidth=1;fillColor=none;align=left;verticalAlign=middle;spacingTop=-1;spacingLeft=3;spacingRight=3;rotatable=0;labelPosition=right;points=[];portConstraint=eastwest;strokeColor=inherit;" vertex="1" parent="1LyA_sJIvCgKy_9Qs8XV-0">
          <mxGeometry y="50" width="270" height="10" as="geometry" />
        </mxCell>
        <mxCell id="1LyA_sJIvCgKy_9Qs8XV-3" value="&lt;p style=&quot;margin: 0px 0px 0px 4px; line-height: 180%;&quot;&gt;+ subscribe(subscriber: ISubscriber) : void&lt;/p&gt;&lt;p style=&quot;margin: 0px 0px 0px 4px; line-height: 180%;&quot;&gt;&lt;span style=&quot;background-color: initial;&quot;&gt;+ unsubscribe(subscriber: ISubscriber) : &lt;/span&gt;void&lt;br&gt;&lt;/p&gt;&lt;p style=&quot;margin: 0px 0px 0px 4px; line-height: 180%;&quot;&gt;+ notifySubscribers(string message): void&lt;/p&gt;&lt;div style=&quot;line-height: 180%;&quot;&gt;&lt;/div&gt;" style="text;strokeColor=none;fillColor=none;align=left;verticalAlign=top;spacingLeft=4;spacingRight=4;overflow=hidden;rotatable=0;points=[[0,0.5],[1,0.5]];portConstraint=eastwest;whiteSpace=wrap;html=1;" vertex="1" parent="1LyA_sJIvCgKy_9Qs8XV-0">
          <mxGeometry y="60" width="270" height="80" as="geometry" />
        </mxCell>
        <mxCell id="1LyA_sJIvCgKy_9Qs8XV-4" value="" style="endArrow=diamondThin;endFill=0;endSize=24;html=1;rounded=0;entryX=0.493;entryY=1.013;entryDx=0;entryDy=0;entryPerimeter=0;exitX=0.5;exitY=0;exitDx=0;exitDy=0;" edge="1" parent="WIyWlLk6GJQsqaUBKTNV-1" source="IWbHio8IvnpA1DpgQnnE-22" target="1LyA_sJIvCgKy_9Qs8XV-3">
          <mxGeometry width="160" relative="1" as="geometry">
            <mxPoint x="350" y="480" as="sourcePoint" />
            <mxPoint x="510" y="480" as="targetPoint" />
          </mxGeometry>
        </mxCell>
        <mxCell id="1LyA_sJIvCgKy_9Qs8XV-5" value="" style="endArrow=diamondThin;endFill=0;endSize=24;html=1;rounded=0;entryX=1;entryY=0.111;entryDx=0;entryDy=0;entryPerimeter=0;exitX=0.01;exitY=0.1;exitDx=0;exitDy=0;exitPerimeter=0;" edge="1" parent="WIyWlLk6GJQsqaUBKTNV-1" source="IWbHio8IvnpA1DpgQnnE-35" target="IWbHio8IvnpA1DpgQnnE-40">
          <mxGeometry width="160" relative="1" as="geometry">
            <mxPoint x="392" y="499" as="sourcePoint" />
            <mxPoint x="390" y="440" as="targetPoint" />
          </mxGeometry>
        </mxCell>
      </root>
    </mxGraphModel>
  </diagram>
</mxfile>
